<?xml version="1.0" encoding="utf-8"?>
<svg version="1.1" xmlns:xlink="http://www.w3.org/1999/xlink" width="50px" height="50px" xmlns="http://www.w3.org/2000/svg">
  <g transform="matrix(1 0 0 1 -1426 -541 )">
    <path d="M 30.37109375 29.0859173126615  C 31.2174479166667 28.0415590008613  31.7816840277778 27.5193798449612  32.0638020833333 27.5193798449612  C 32.3459201388889 27.5193798449612  33.4038628472222 27.9931093884582  35.2376302083333 28.9405684754522  C 37.0713975694445 29.8880275624462  38.0425347222222 30.4586563307494  38.1510416666667 30.6524547803618  C 38.1944444444445 30.760120585702  38.2161458333333 30.9216192937123  38.2161458333333 31.1369509043928  C 38.2161458333333 31.8475452196382  38.0316840277778 32.6658053402239  37.6627604166667 33.5917312661499  C 37.3155381944445 34.4315245478036  36.5451388888889 35.1367355727821  35.3515625 35.7073643410853  C 34.1579861111111 36.2779931093885  33.0512152777778 36.5633074935401  32.03125 36.5633074935401  C 30.7942708333333 36.5633074935401  28.7326388888889 35.8957795004307  25.8463541666667 34.5607235142119  C 23.7196180555556 33.5917312661499  21.875 32.3212747631352  20.3125 30.749354005168  C 18.75 29.1774332472007  17.1440972222222 27.1856158484065  15.4947916666667 24.7739018087855  C 13.9322916666667 22.4698535745047  13.1618923611111 20.3811369509044  13.18359375 18.5077519379845  L 13.18359375 18.249354005168  C 13.2486979166667 16.2898363479759  14.0516493055556 14.5887166236003  15.5924479166667 13.1459948320413  C 16.11328125 12.6722652885444  16.6775173611111 12.4354005167959  17.28515625 12.4354005167959  C 17.4153645833333 12.4354005167959  17.6106770833333 12.4515503875969  17.87109375 12.483850129199  C 18.1315104166667 12.516149870801  18.3376736111111 12.5322997416021  18.4895833333333 12.5322997416021  C 18.9019097222222 12.5322997416021  19.189453125 12.6022825150732  19.3522135416667 12.7422480620155  C 19.5149739583333 12.8822136089578  19.6831597222222 13.1782945736434  19.8567708333333 13.6304909560724  C 20.0303819444444 14.0611541774332  20.3884548611111 15.0086132644272  20.9309895833333 16.4728682170543  C 21.4735243055556 17.9371231696813  21.7447916666667 18.744616709733  21.7447916666667 18.8953488372093  C 21.7447916666667 19.3475452196382  21.3704427083333 19.9666236003445  20.6217447916667 20.7525839793282  C 19.873046875 21.5385443583118  19.4986979166667 22.0391903531438  19.4986979166667 22.2545219638243  C 19.4986979166667 22.4052540913006  19.5529513888889 22.5667527993109  19.6614583333333 22.7390180878553  C 20.3993055555556 24.3109388458226  21.5060763888889 25.7859603789836  22.9817708333333 27.1640826873385  C 24.1970486111111 28.3053402239449  25.8355034722222 29.3927648578811  27.8971354166667 30.4263565891473  C 28.1575520833333 30.5770887166236  28.3962673611111 30.6524547803618  28.61328125 30.6524547803618  C 28.9388020833333 30.6524547803618  29.5247395833333 30.1302756244617  30.37109375 29.0859173126615  Z M 14.2252604166667 41.2790697674419  C 17.6540798611111 43.5185185185185  21.3975694444444 44.6382428940568  25.4557291666667 44.6382428940568  C 28.2118055555556 44.6382428940568  30.8539496527778 44.0999138673557  33.3821614583333 43.0232558139535  C 35.9103732638889 41.9465977605512  38.0859375 40.5038759689922  39.9088541666667 38.6950904392765  C 41.7317708333333 36.8863049095607  43.1857638888889 34.7276055124892  44.2708333333333 32.218992248062  C 45.3559027777778 29.7103789836348  45.8984375 27.0887166236003  45.8984375 24.3540051679587  C 45.8984375 21.619293712317  45.3559027777778 18.9976313522825  44.2708333333333 16.4890180878553  C 43.1857638888889 13.9804048234281  41.7317708333333 11.8217054263566  39.9088541666667 10.0129198966408  C 38.0859375 8.20413436692506  35.9103732638889 6.76141257536606  33.3821614583333 5.68475452196382  C 30.8539496527778 4.60809646856158  28.2118055555556 4.06976744186047  25.4557291666667 4.06976744186047  C 22.6996527777778 4.06976744186047  20.0575086805556 4.60809646856158  17.529296875 5.68475452196382  C 15.0010850694444 6.76141257536606  12.8255208333333 8.20413436692506  11.0026041666667 10.0129198966408  C 9.1796875 11.8217054263566  7.72569444444444 13.9804048234281  6.640625 16.4890180878553  C 5.55555555555556 18.9976313522825  5.01302083333333 21.619293712317  5.01302083333333 24.3540051679587  C 5.01302083333333 28.7252368647717  6.31510416666667 32.687338501292  8.91927083333333 36.2403100775194  L 6.34765625 43.766149870801  L 14.2252604166667 41.2790697674419  Z M 15.9342447916667 1.93798449612403  C 18.9615885416667 0.645994832041341  22.1354166666667 0  25.4557291666667 0  C 28.7760416666667 0  31.9498697916667 0.645994832041341  34.9772135416667 1.93798449612403  C 38.0045572916667 3.22997416020672  40.6141493055556 4.96339362618432  42.8059895833333 7.13824289405685  C 44.9978298611111 9.31309216192937  46.7447916666667 11.9024547803618  48.046875 14.906330749354  C 49.3489583333333 17.9102067183462  50 21.0594315245478  50 24.3540051679587  C 50 27.6485788113695  49.3489583333333 30.7978036175711  48.046875 33.8016795865633  C 46.7447916666667 36.8055555555556  44.9978298611111 39.3949181739879  42.8059895833333 41.5697674418605  C 40.6141493055556 43.744616709733  38.0045572916667 45.4780361757106  34.9772135416667 46.7700258397933  C 31.9498697916667 48.062015503876  28.7760416666667 48.7080103359173  25.4557291666667 48.7080103359173  C 21.2239583333333 48.7080103359173  17.2634548611111 47.6959517657192  13.57421875 45.671834625323  L 0 50  L 4.42708333333333 36.9186046511628  C 2.08333333333333 33.0857019810508  0.911458333333333 28.8975021533161  0.911458333333333 24.3540051679587  C 0.911458333333333 21.0594315245478  1.5625 17.9102067183462  2.86458333333333 14.906330749354  C 4.16666666666667 11.9024547803618  5.91362847222222 9.31309216192937  8.10546875 7.13824289405685  C 10.2973090277778 4.96339362618432  12.9069010416667 3.22997416020672  15.9342447916667 1.93798449612403  Z " fill-rule="nonzero" fill="#000000" stroke="none" transform="matrix(1 0 0 1 1426 541 )" />
  </g>
</svg>